<svg width="40" height="48" viewBox="0 0 40 48" fill="none" xmlns="http://www.w3.org/2000/svg">
<circle cx="20" cy="38" r="8.5" stroke="#548776" stroke-width="3"/>
<path d="M18.9489 19C18.9342 19.0369 18.9171 19.0784 18.8972 19.1246C18.7764 19.4056 18.5861 19.7907 18.3282 20.2498C17.8132 21.1667 17.066 22.3131 16.1581 23.4276C15.246 24.5473 14.2073 25.591 13.1177 26.3442C12.0224 27.1013 10.9713 27.5 10 27.5C5.30558 27.5 1.5 23.6944 1.5 19C1.5 14.3056 5.30558 10.5 10 10.5C10.9713 10.5 12.0224 10.8987 13.1177 11.6558C14.2073 12.409 15.246 13.4527 16.1581 14.5724C17.066 15.6869 17.8132 16.8333 18.3282 17.7502C18.5861 18.2093 18.7764 18.5944 18.8972 18.8754C18.9171 18.9216 18.9342 18.9631 18.9489 19ZM19.0179 19.1932C19.021 19.2042 19.0221 19.2092 19.0219 19.2091C19.0216 19.2089 19.0201 19.2034 19.0179 19.1932ZM19.0179 18.8068C19.0201 18.7966 19.0216 18.7911 19.0219 18.7909C19.0221 18.7907 19.021 18.7958 19.0179 18.8068Z" stroke="#548776" stroke-width="3"/>
<path d="M38.5 19C38.5 23.6944 34.6944 27.5 30 27.5C29.0798 27.5 28.0841 27.0807 27.0327 26.2568C25.9881 25.4382 25.0048 24.3097 24.144 23.1205C23.2892 21.9395 22.5914 20.7497 22.1058 19.85C21.9279 19.5203 21.7796 19.2319 21.6638 19C21.7796 18.7681 21.9279 18.4797 22.1058 18.15C22.5914 17.2503 23.2892 16.0605 24.144 14.8795C25.0048 13.6903 25.9881 12.5618 27.0327 11.7432C28.0841 10.9193 29.0798 10.5 30 10.5C34.6944 10.5 38.5 14.3056 38.5 19Z" stroke="#548776" stroke-width="3"/>
<line x1="20.5" x2="20.5" y2="10" stroke="#548776" stroke-width="3"/>
</svg>
